<svg width="150" height="150" xmlns="http://www.w3.org/2000/svg" style="vector-effect: non-scaling-stroke;" stroke="null">
 <g stroke="null">
  <title stroke="null">Layer 1</title>
  <path stroke="null" fill="#FF0066" d="m90.03628,54.25055c7.27245,15.19311 15.66374,18.20939 27.52342,25.13566c11.7478,6.92627 27.07589,17.76253 31.21559,30.94479c4.02782,13.07054 -3.13275,28.48708 -15.99939,33.4025c-12.75476,5.02713 -31.32747,-0.44686 -45.42484,-0.55857c-14.20925,-0.22343 -24.05502,4.91542 -36.13848,6.47941c-12.08345,1.45228 -26.40458,-0.55857 -34.68399,-8.60198c-8.39129,-8.04341 -10.62896,-22.11938 -12.97852,-36.41877c-2.34956,-14.2994 -4.811,-28.71051 -2.12579,-43.45676c2.7971,-14.63454 10.62896,-29.60422 22.93619,-42.56305c12.41911,-12.84711 29.20168,-23.79509 40.72571,-15.52825c11.52403,8.26684 17.67765,35.8602 24.95009,51.16503z" id="svg_1"/>
 </g>

</svg>