<svg width="605" height="570" viewBox="0 0 605 570" fill="none" xmlns="http://www.w3.org/2000/svg">
<g filter="url(#filter0_d)">
<rect x="21" y="223" width="102.811" height="132" rx="2.59459" fill="#F4F7FC"/>
<path d="M21 225.595C21 224.162 22.1616 223 23.5946 223H121.216C122.649 223 123.811 224.162 123.811 225.595V316.73H21V225.595Z" fill="#C2C5C9"/>
<rect x="28.4595" y="325.811" width="87.8919" height="5.51351" rx="2.59459" fill="#C2C5C9"/>
<rect x="28.4595" y="335.216" width="87.8919" height="5.51351" rx="2.59459" fill="#C2C5C9"/>
<rect x="28.4595" y="344.622" width="87.8919" height="5.51351" rx="2.59459" fill="#C2C5C9"/>
</g>
<g filter="url(#filter1_d)">
<rect x="150" y="21" width="102.811" height="132" rx="2.59459" fill="#F4F7FC"/>
<path d="M150 23.5946C150 22.1616 151.162 21 152.595 21H250.216C251.649 21 252.811 22.1616 252.811 23.5946V114.73H150V23.5946Z" fill="#C2C5C9"/>
<rect x="157.459" y="123.811" width="87.8919" height="5.51351" rx="2.59459" fill="#C2C5C9"/>
<rect x="157.459" y="133.216" width="87.8919" height="5.51351" rx="2.59459" fill="#C2C5C9"/>
<rect x="157.459" y="142.622" width="87.8919" height="5.51351" rx="2.59459" fill="#C2C5C9"/>
</g>
<g filter="url(#filter2_d)">
<rect x="150" y="416" width="102.811" height="132" rx="2.59459" fill="#F4F7FC"/>
<path d="M150 418.595C150 417.162 151.162 416 152.595 416H250.216C251.649 416 252.811 417.162 252.811 418.595V509.73H150V418.595Z" fill="#C2C5C9"/>
<rect x="157.459" y="518.811" width="87.8919" height="5.51351" rx="2.59459" fill="#C2C5C9"/>
<rect x="157.459" y="528.216" width="87.8919" height="5.51351" rx="2.59459" fill="#C2C5C9"/>
<rect x="157.459" y="537.622" width="87.8919" height="5.51351" rx="2.59459" fill="#C2C5C9"/>
</g>
<path d="M569.725 251.947C559.545 252.524 539.312 254.624 526.821 262.261C525.959 262.788 525.47 263.725 525.47 264.705V332.22C525.47 334.363 527.817 335.717 529.795 334.723C542.646 328.262 561.232 326.499 570.422 326.017C573.559 325.852 575.998 323.339 575.998 320.328V257.643C576 254.357 573.147 251.754 569.725 251.947ZM518.177 262.261C505.688 254.624 485.455 252.526 475.275 251.947C471.853 251.754 469 254.357 469 257.643V320.33C469 323.343 471.439 325.855 474.577 326.019C483.77 326.501 502.365 328.266 515.216 334.73C517.189 335.723 519.528 334.37 519.528 332.233V264.671C519.528 263.69 519.041 262.79 518.177 262.261Z" fill="#F3A032"/>
<path d="M469 293.5L453.846 285.112L454.159 302.429L469 293.5ZM252.786 486.407C253.846 486.407 254.896 486.388 255.936 486.351L255.827 483.352C254.823 483.389 253.81 483.407 252.786 483.407V486.407ZM265.162 485.498C267.221 485.188 269.241 484.801 271.223 484.341L270.544 481.419C268.639 481.861 266.697 482.233 264.716 482.532L265.162 485.498ZM280.129 481.698C282.081 480.989 283.994 480.206 285.869 479.353L284.626 476.622C282.821 477.444 280.981 478.197 279.105 478.879L280.129 481.698ZM294.077 475.045C295.84 473.993 297.569 472.878 299.265 471.703L297.557 469.237C295.915 470.374 294.243 471.453 292.54 472.469L294.077 475.045ZM306.613 466.094C308.182 464.782 309.723 463.42 311.238 462.01L309.195 459.814C307.717 461.189 306.215 462.516 304.689 463.792L306.613 466.094ZM317.761 455.496C319.147 454.017 320.512 452.499 321.857 450.946L319.59 448.981C318.269 450.507 316.93 451.996 315.572 453.445L317.761 455.496ZM327.693 443.848C328.943 442.251 330.177 440.626 331.396 438.975L328.983 437.192C327.779 438.822 326.562 440.425 325.33 441.999L327.693 443.848ZM336.713 431.501C337.861 429.829 338.997 428.138 340.123 426.43L337.618 424.779C336.502 426.473 335.376 428.148 334.24 429.803L336.713 431.501ZM345.066 418.732C346.142 417.017 347.21 415.288 348.273 413.549L345.712 411.985C344.655 413.715 343.593 415.434 342.524 417.139L345.066 418.732ZM352.983 405.715C354.017 403.973 355.047 402.224 356.074 400.471L353.485 398.955C352.46 400.704 351.434 402.448 350.403 404.185L352.983 405.715ZM360.665 392.587C361.174 391.71 361.683 390.833 362.191 389.956C362.699 389.079 363.208 388.203 363.716 387.326L361.121 385.821C360.612 386.698 360.104 387.575 359.596 388.451C359.087 389.328 358.579 390.205 358.071 391.081L360.665 392.587ZM368.301 379.453C369.326 377.703 370.353 375.959 371.383 374.223L368.803 372.692C367.769 374.434 366.74 376.183 365.713 377.936L368.301 379.453ZM376.074 366.422C377.131 364.692 378.193 362.973 379.262 361.269L376.72 359.675C375.645 361.391 374.576 363.119 373.514 364.859L376.074 366.422ZM384.168 353.629C385.285 351.935 386.41 350.259 387.546 348.605L385.073 346.907C383.926 348.578 382.79 350.269 381.663 351.978L384.168 353.629ZM392.803 341.215C394.007 339.585 395.224 337.982 396.456 336.408L394.094 334.559C392.844 336.156 391.61 337.781 390.39 339.432L392.803 341.215ZM402.197 329.426C403.518 327.901 404.857 326.412 406.215 324.962L404.025 322.911C402.639 324.391 401.274 325.909 399.929 327.462L402.197 329.426ZM412.592 318.594C414.07 317.218 415.571 315.891 417.098 314.615L415.173 312.314C413.604 313.625 412.063 314.988 410.548 316.397L412.592 318.594ZM424.229 309.171C425.872 308.033 427.544 306.955 429.246 305.939L427.709 303.362C425.946 304.414 424.218 305.53 422.521 306.704L424.229 309.171ZM437.16 301.785C438.965 300.964 440.805 300.21 442.682 299.529L441.657 296.709C439.705 297.418 437.793 298.201 435.918 299.055L437.16 301.785ZM451.242 296.989C453.147 296.546 455.089 296.174 457.071 295.876L456.624 292.909C454.565 293.219 452.545 293.606 450.563 294.066L451.242 296.989Z" fill="#C2C5C9"/>
<path d="M257.073 484.907C257.073 487.518 255.082 489.5 252.787 489.5C250.491 489.5 248.5 487.518 248.5 484.907C248.5 482.297 250.491 480.315 252.787 480.315C255.082 480.315 257.073 482.297 257.073 484.907Z" fill="white" stroke="#C2C5C9" stroke-width="3"/>
<path d="M469 293.5L454.002 284.836L453.998 302.157L469 293.5ZM123.811 290.5C124.83 290.5 125.845 290.5 126.856 290.501L126.857 287.501C125.846 287.5 124.831 287.5 123.811 287.5V290.5ZM135.837 290.511C137.866 290.514 139.878 290.519 141.873 290.524L141.881 287.524C139.885 287.519 137.873 287.514 135.842 287.511L135.837 290.511ZM150.838 290.554C152.869 290.563 154.882 290.572 156.878 290.582L156.893 287.582C154.896 287.572 152.882 287.563 150.85 287.554L150.838 290.554ZM165.871 290.634C167.885 290.647 169.881 290.661 171.862 290.676L171.884 287.676C169.903 287.661 167.905 287.647 165.891 287.634L165.871 290.634ZM180.879 290.75C182.886 290.768 184.877 290.787 186.852 290.807L186.882 287.807C184.906 287.787 182.914 287.769 180.906 287.75L180.879 290.75ZM195.853 290.904C197.878 290.927 199.886 290.951 201.879 290.976L201.917 287.976C199.923 287.951 197.913 287.927 195.887 287.904L195.853 290.904ZM210.873 291.095C212.884 291.123 214.88 291.152 216.862 291.182L216.907 288.182C214.924 288.152 212.927 288.123 210.915 288.095L210.873 291.095ZM225.872 291.322C227.886 291.355 229.886 291.389 231.874 291.423L231.925 288.423C229.937 288.389 227.936 288.356 225.921 288.323L225.872 291.322ZM240.869 291.583C242.879 291.62 244.879 291.658 246.868 291.696L246.925 288.696C244.935 288.658 242.935 288.621 240.924 288.584L240.869 291.583ZM255.871 291.873C257.88 291.914 259.88 291.955 261.873 291.996L261.935 288.997C259.942 288.955 257.941 288.914 255.932 288.874L255.871 291.873ZM270.871 292.186C272.875 292.229 274.873 292.273 276.867 292.316L276.932 289.317C274.938 289.274 272.94 289.23 270.936 289.187L270.871 292.186ZM285.87 292.515C287.873 292.56 289.873 292.604 291.872 292.649L291.939 289.65C289.94 289.605 287.939 289.56 285.937 289.516L285.87 292.515ZM300.872 292.85C302.871 292.895 304.871 292.94 306.874 292.984L306.941 289.985C304.938 289.94 302.938 289.896 300.939 289.851L300.872 292.85ZM315.878 293.183C317.872 293.226 319.871 293.27 321.875 293.313L321.94 290.314C319.936 290.271 317.938 290.227 315.944 290.184L315.878 293.183ZM330.876 293.503C332.869 293.545 334.869 293.586 336.879 293.626L336.939 290.627C334.931 290.586 332.931 290.545 330.938 290.504L330.876 293.503ZM345.885 293.804C347.875 293.842 349.875 293.879 351.887 293.916L351.942 290.917C349.931 290.88 347.932 290.842 345.943 290.804L345.885 293.804ZM360.886 294.077C362.874 294.111 364.875 294.144 366.89 294.177L366.939 291.178C364.925 291.145 362.925 291.111 360.937 291.077L360.886 294.077ZM375.904 294.318C377.887 294.348 379.884 294.377 381.896 294.405L381.938 291.405C379.927 291.377 377.931 291.348 375.949 291.318L375.904 294.318ZM390.894 294.524C392.888 294.549 394.898 294.573 396.923 294.596L396.958 291.596C394.933 291.573 392.925 291.549 390.932 291.524L390.894 294.524ZM405.928 294.693C407.904 294.713 409.896 294.732 411.905 294.75L411.932 291.75C409.924 291.732 407.933 291.713 405.958 291.693L405.928 294.693ZM420.927 294.824C422.908 294.839 424.906 294.853 426.92 294.866L426.94 291.866C424.926 291.853 422.929 291.839 420.949 291.824L420.927 294.824ZM435.918 294.918C437.915 294.928 439.929 294.937 441.961 294.946L441.973 291.946C439.942 291.937 437.929 291.928 435.933 291.918L435.918 294.918ZM450.93 294.976C452.926 294.981 454.938 294.986 456.968 294.989L456.974 291.989C454.944 291.986 452.933 291.981 450.938 291.976L450.93 294.976Z" fill="#C2C5C9"/>
<circle cx="123.811" cy="289" r="4.5" fill="white" stroke="#C2C5C9" stroke-width="3"/>
<path d="M469 293.5L454.163 284.563L453.842 301.881L469 293.5ZM252.811 88.5C253.823 88.5 254.826 88.5187 255.819 88.5558L255.931 85.5579C254.9 85.5194 253.86 85.5 252.811 85.5V88.5ZM264.598 89.3898C266.558 89.6934 268.479 90.0724 270.362 90.5235L271.061 87.606C269.099 87.1359 267.098 86.7412 265.057 86.4252L264.598 89.3898ZM278.799 93.1068C280.643 93.7987 282.45 94.5635 284.223 95.3975L285.5 92.683C283.656 91.8153 281.774 91.019 279.853 90.298L278.799 93.1068ZM291.984 99.6126C293.651 100.643 295.288 101.737 296.895 102.892L298.645 100.455C296.984 99.2617 295.29 98.1289 293.561 97.0606L291.984 99.6126ZM303.848 108.405C305.329 109.692 306.785 111.031 308.218 112.419L310.306 110.265C308.836 108.841 307.34 107.465 305.816 106.14L303.848 108.405ZM314.387 118.843C315.698 120.304 316.99 121.805 318.264 123.344L320.575 121.431C319.277 119.863 317.959 118.332 316.62 116.839L314.387 118.843ZM323.783 130.381C324.967 131.969 326.136 133.588 327.291 135.235L329.747 133.512C328.576 131.843 327.391 130.201 326.189 128.588L323.783 130.381ZM332.296 142.659C333.373 144.319 334.44 146.001 335.497 147.703L338.046 146.12C336.979 144.402 335.901 142.703 334.812 141.026L332.296 142.659ZM340.142 155.398C341.15 157.113 342.151 158.844 343.145 160.587L345.751 159.101C344.751 157.347 343.744 155.605 342.729 153.878L340.142 155.398ZM347.536 168.435C348.498 170.184 349.456 171.942 350.411 173.709L353.05 172.282C352.093 170.51 351.131 168.745 350.165 166.988L347.536 168.435ZM354.664 181.653C355.602 183.419 356.538 185.189 357.474 186.961L360.127 185.56C359.19 183.787 358.253 182.015 357.314 180.246L354.664 181.653ZM361.684 194.94C362.62 196.713 363.558 198.485 364.497 200.254L367.147 198.847C366.209 197.081 365.272 195.311 364.337 193.539L361.684 194.94ZM368.761 208.218C369.718 209.99 370.68 211.755 371.646 213.511L374.275 212.065C373.312 210.316 372.354 208.557 371.4 206.791L368.761 208.218ZM376.06 221.399C377.06 223.153 378.067 224.895 379.082 226.622L381.668 225.102C380.661 223.387 379.66 221.656 378.666 219.913L376.06 221.399ZM383.765 234.38C384.832 236.098 385.909 237.797 386.999 239.474L389.515 237.841C388.437 236.181 387.371 234.499 386.313 232.797L383.765 234.38ZM392.063 246.988C393.234 248.657 394.42 250.299 395.622 251.911L398.027 250.119C396.844 248.531 395.675 246.912 394.519 245.265L392.063 246.988ZM401.236 259.069C402.534 260.637 403.852 262.168 405.191 263.661L407.423 261.657C406.113 260.196 404.821 258.695 403.547 257.156L401.236 259.069ZM411.505 270.235C412.975 271.659 414.471 273.035 415.995 274.36L417.963 272.095C416.481 270.808 415.025 269.469 413.593 268.081L411.505 270.235ZM423.166 280.045C424.827 281.238 426.521 282.371 428.25 283.439L429.827 280.887C428.159 279.857 426.523 278.763 424.916 277.608L423.166 280.045ZM436.311 287.817C438.155 288.685 440.037 289.481 441.958 290.202L443.012 287.393C441.168 286.701 439.36 285.936 437.588 285.102L436.311 287.817ZM450.75 292.894C452.712 293.364 454.713 293.759 456.753 294.075L457.213 291.11C455.253 290.807 453.332 290.428 451.448 289.976L450.75 292.894Z" fill="#C2C5C9"/>
<circle cx="252.811" cy="87" r="4.5" fill="white" stroke="#C2C5C9" stroke-width="3"/>
<defs>
<filter id="filter0_d" x="19.7027" y="223" width="105.405" height="134.595" filterUnits="userSpaceOnUse" color-interpolation-filters="sRGB">
<feFlood flood-opacity="0" result="BackgroundImageFix"/>
<feColorMatrix in="SourceAlpha" type="matrix" values="0 0 0 0 0 0 0 0 0 0 0 0 0 0 0 0 0 0 127 0"/>
<feOffset dy="1.2973"/>
<feGaussianBlur stdDeviation="0.648649"/>
<feColorMatrix type="matrix" values="0 0 0 0 0 0 0 0 0 0 0 0 0 0 0 0 0 0 0.25 0"/>
<feBlend mode="normal" in2="BackgroundImageFix" result="effect1_dropShadow"/>
<feBlend mode="normal" in="SourceGraphic" in2="effect1_dropShadow" result="shape"/>
</filter>
<filter id="filter1_d" x="148.703" y="21" width="105.405" height="134.595" filterUnits="userSpaceOnUse" color-interpolation-filters="sRGB">
<feFlood flood-opacity="0" result="BackgroundImageFix"/>
<feColorMatrix in="SourceAlpha" type="matrix" values="0 0 0 0 0 0 0 0 0 0 0 0 0 0 0 0 0 0 127 0"/>
<feOffset dy="1.2973"/>
<feGaussianBlur stdDeviation="0.648649"/>
<feColorMatrix type="matrix" values="0 0 0 0 0 0 0 0 0 0 0 0 0 0 0 0 0 0 0.25 0"/>
<feBlend mode="normal" in2="BackgroundImageFix" result="effect1_dropShadow"/>
<feBlend mode="normal" in="SourceGraphic" in2="effect1_dropShadow" result="shape"/>
</filter>
<filter id="filter2_d" x="148.703" y="416" width="105.405" height="134.595" filterUnits="userSpaceOnUse" color-interpolation-filters="sRGB">
<feFlood flood-opacity="0" result="BackgroundImageFix"/>
<feColorMatrix in="SourceAlpha" type="matrix" values="0 0 0 0 0 0 0 0 0 0 0 0 0 0 0 0 0 0 127 0"/>
<feOffset dy="1.2973"/>
<feGaussianBlur stdDeviation="0.648649"/>
<feColorMatrix type="matrix" values="0 0 0 0 0 0 0 0 0 0 0 0 0 0 0 0 0 0 0.25 0"/>
<feBlend mode="normal" in2="BackgroundImageFix" result="effect1_dropShadow"/>
<feBlend mode="normal" in="SourceGraphic" in2="effect1_dropShadow" result="shape"/>
</filter>
</defs>
</svg>
