<svg width="1440" height="1024" viewBox="0 0 1440 1024" fill="none" xmlns="http://www.w3.org/2000/svg">
<rect width="1440" height="1024" fill="white"/>
<g clip-path="url(#clip0)">
<path fill-rule="evenodd" clip-rule="evenodd" d="M709.337 518.328L741.793 478.557C749.177 469.105 745.685 461.391 740.837 440.94C737.276 425.807 740.073 408.727 750.776 397.503C781.373 365.463 843.611 303 843.611 303L851.812 309.429L787.646 391.578L801.372 402.298L868.613 322.547L876.936 329.028L815.116 413.036L828.842 423.774L896.344 344.196L904.041 350.225L842.568 434.494L856.312 445.214L920.478 363.065L928.001 368.938C928.001 368.938 883.695 444.693 860.273 482.484C851.951 495.88 835.514 502.656 819.72 502.76C798.679 502.882 790.443 501.214 782.937 510.822L743.305 559.385C785.787 610.85 822.517 655.487 840.136 678.039C853.532 695.188 841.265 720.104 819.32 720.104C812.023 720.104 804.499 717.133 799.044 710.148L653.789 535.147C653.789 535.147 637.699 547.64 620.012 561.523C564.898 471.451 511.123 358.913 511.123 319.055C511.123 316.831 510.532 303 523.841 303C528.098 303 532.407 305.016 535.552 308.977C544.396 320.132 629.637 422.14 709.337 518.328V518.328ZM658.046 581.174L691.979 622.266L620.481 710.096C615.355 716.664 607.693 720.104 599.944 720.104C579.128 720.104 565.35 695.744 579.285 677.918L658.046 581.174V581.174Z" fill="#FFB902"/>
</g>
<defs>
<clipPath id="clip0">
<rect width="417" height="417" fill="white" transform="translate(511 303)"/>
</clipPath>
</defs>
</svg>
