<svg width="10" height="19" viewBox="0 0 10 19" fill="none" xmlns="http://www.w3.org/2000/svg">
<path d="M2.2 1H7.8C8.39998 1 8.39998 2.14607 7.8 2.14607H2.2C1.6 2.14607 1.6 1 2.2 1Z" fill="black"/>
<path d="M2.6 3.10112H7.4C7.4 4.82022 9 7.68539 9 8.25843V16.8539C9 17.427 8.4 18 7.8 18H2.2C1.6 18 1 17.236 1 16.6629V8.25843C1 7.68539 2.6 4.82022 2.6 3.10112Z" fill="black"/>
<path d="M7.8 2.14607C8.39998 2.14607 8.39998 1 7.8 1H2.2C1.6 1 1.6 2.14607 2.2 2.14607M7.8 2.14607C6.69546 2.14607 1.60001 2.14607 2.2 2.14607M7.8 2.14607H2.2M2.6 3.10112H7.4C7.4 4.82022 9 7.68539 9 8.25843V16.8539C9 17.427 8.4 18 7.8 18H2.2C1.6 18 1 17.236 1 16.6629V8.25843C1 7.68539 2.6 4.82022 2.6 3.10112Z" stroke="black"/>
</svg>
