<svg width="726" height="526" viewBox="0 0 726 526" fill="none" xmlns="http://www.w3.org/2000/svg">
<rect width="726" height="526" fill="#E5E5E5"/>
<g id="OpenCard">
<rect width="726" height="526" rx="5" fill="white"/>
<g id="oc_card1" filter="url(#filter0_d)">
<rect x="162" y="108" width="102.811" height="132" rx="2.59459" fill="#F4F7FC"/>
<path id="oc_Rectangle 8" d="M162 110.595C162 109.162 163.162 108 164.595 108H262.405C263.838 108 265 109.162 265 110.595V202H162V110.595Z" fill="#C2C5C9"/>
<rect id="oc_Rectangle 9" x="169.459" y="210.811" width="87.8919" height="5.51351" rx="2.59459" fill="#C2C5C9"/>
<rect id="oc_Rectangle 10" x="169.459" y="220.216" width="87.8919" height="5.51351" rx="2.59459" fill="#C2C5C9"/>
<rect id="oc_Rectangle 11" x="169.459" y="229.622" width="87.8919" height="5.51351" rx="2.59459" fill="#C2C5C9"/>
<path id="oc_Rectangle 19" d="M248 118C248 116.895 248.895 116 250 116H265V127H250C248.895 127 248 126.105 248 125V118Z" fill="#F3A032"/>
<g id="plus-solid 1">
<path id="Vector" d="M259.429 120.656H256.857V118.125C256.857 117.814 256.601 117.562 256.286 117.562H255.714C255.399 117.562 255.143 117.814 255.143 118.125V120.656H252.571C252.256 120.656 252 120.908 252 121.219V121.781C252 122.092 252.256 122.344 252.571 122.344H255.143V124.875C255.143 125.186 255.399 125.438 255.714 125.438H256.286C256.601 125.438 256.857 125.186 256.857 124.875V122.344H259.429C259.744 122.344 260 122.092 260 121.781V121.219C260 120.908 259.744 120.656 259.429 120.656Z" fill="white"/>
</g>
</g>
<g id="oc_card3" filter="url(#filter1_d)">
<rect x="460" y="108" width="102.811" height="132" rx="2.59459" fill="#F4F7FC"/>
<path id="oc_Rectangle 8_2" d="M460 110.595C460 109.162 461.162 108 462.595 108H560.405C561.838 108 563 109.162 563 110.595V202H460V110.595Z" fill="#C2C5C9"/>
<rect id="oc_Rectangle 9_2" x="467.459" y="210.811" width="87.8919" height="5.51351" rx="2.59459" fill="#C2C5C9"/>
<rect id="oc_Rectangle 10_2" x="467.459" y="220.216" width="87.8919" height="5.51351" rx="2.59459" fill="#C2C5C9"/>
<rect id="oc_Rectangle 11_2" x="467.459" y="229.622" width="87.8919" height="5.51351" rx="2.59459" fill="#C2C5C9"/>
<path id="oc_Rectangle 19_2" d="M546 118C546 116.895 546.895 116 548 116H563V127H548C546.895 127 546 126.105 546 125V118Z" fill="#F3A032"/>
<g id="plus-solid 1_2">
<path id="Vector_2" d="M557.429 120.656H554.857V118.125C554.857 117.814 554.601 117.562 554.286 117.562H553.714C553.399 117.562 553.143 117.814 553.143 118.125V120.656H550.571C550.256 120.656 550 120.908 550 121.219V121.781C550 122.092 550.256 122.344 550.571 122.344H553.143V124.875C553.143 125.186 553.399 125.438 553.714 125.438H554.286C554.601 125.438 554.857 125.186 554.857 124.875V122.344H557.429C557.744 122.344 558 122.092 558 121.781V121.219C558 120.908 557.744 120.656 557.429 120.656Z" fill="white"/>
</g>
</g>
<g id="oc_card6" filter="url(#filter2_d)">
<rect x="460" y="276" width="102.811" height="132" rx="2.59459" fill="#F4F7FC"/>
<path id="oc_Rectangle 8_3" d="M460 278.595C460 277.162 461.162 276 462.595 276H560.405C561.838 276 563 277.162 563 278.595V370H460V278.595Z" fill="#C2C5C9"/>
<rect id="oc_Rectangle 9_3" x="467.459" y="378.811" width="87.8919" height="5.51351" rx="2.59459" fill="#C2C5C9"/>
<rect id="oc_Rectangle 10_3" x="467.459" y="388.216" width="87.8919" height="5.51351" rx="2.59459" fill="#C2C5C9"/>
<rect id="oc_Rectangle 11_3" x="467.459" y="397.622" width="87.8919" height="5.51351" rx="2.59459" fill="#C2C5C9"/>
<path id="oc_Rectangle 19_3" d="M546 286C546 284.895 546.895 284 548 284H563V295H548C546.895 295 546 294.105 546 293V286Z" fill="#F3A032"/>
<g id="plus-solid 1_3">
<path id="Vector_3" d="M557.429 288.656H554.857V286.125C554.857 285.814 554.601 285.562 554.286 285.562H553.714C553.399 285.562 553.143 285.814 553.143 286.125V288.656H550.571C550.256 288.656 550 288.908 550 289.219V289.781C550 290.092 550.256 290.344 550.571 290.344H553.143V292.875C553.143 293.186 553.399 293.438 553.714 293.438H554.286C554.601 293.438 554.857 293.186 554.857 292.875V290.344H557.429C557.744 290.344 558 290.092 558 289.781V289.219C558 288.908 557.744 288.656 557.429 288.656Z" fill="white"/>
</g>
</g>
<g id="oc_card5" filter="url(#filter3_d)">
<rect x="311" y="276" width="102.811" height="132" rx="2.59459" fill="#F4F7FC"/>
<path id="oc_Rectangle 8_4" d="M311 278.595C311 277.162 312.162 276 313.595 276H411.405C412.838 276 414 277.162 414 278.595V370H311V278.595Z" fill="#C2C5C9"/>
<rect id="oc_Rectangle 9_4" x="318.459" y="378.811" width="87.8919" height="5.51351" rx="2.59459" fill="#C2C5C9"/>
<rect id="oc_Rectangle 10_4" x="318.459" y="388.216" width="87.8919" height="5.51351" rx="2.59459" fill="#C2C5C9"/>
<rect id="oc_Rectangle 11_4" x="318.459" y="397.622" width="87.8919" height="5.51351" rx="2.59459" fill="#C2C5C9"/>
<path id="oc_Rectangle 19_4" d="M397 286C397 284.895 397.895 284 399 284H414V295H399C397.895 295 397 294.105 397 293V286Z" fill="#F3A032"/>
<g id="plus-solid 1_4">
<path id="Vector_4" d="M408.429 288.656H405.857V286.125C405.857 285.814 405.601 285.562 405.286 285.562H404.714C404.399 285.562 404.143 285.814 404.143 286.125V288.656H401.571C401.256 288.656 401 288.908 401 289.219V289.781C401 290.092 401.256 290.344 401.571 290.344H404.143V292.875C404.143 293.186 404.399 293.438 404.714 293.438H405.286C405.601 293.438 405.857 293.186 405.857 292.875V290.344H408.429C408.744 290.344 409 290.092 409 289.781V289.219C409 288.908 408.744 288.656 408.429 288.656Z" fill="white"/>
</g>
</g>
<g id="oc_card4" filter="url(#filter4_d)">
<rect x="162" y="276" width="102.811" height="132" rx="2.59459" fill="#F4F7FC"/>
<path id="oc_Rectangle 8_5" d="M162 278.595C162 277.162 163.162 276 164.595 276H262.405C263.838 276 265 277.162 265 278.595V370H162V278.595Z" fill="#C2C5C9"/>
<rect id="oc_Rectangle 9_5" x="169.459" y="378.811" width="87.8919" height="5.51351" rx="2.59459" fill="#C2C5C9"/>
<rect id="oc_Rectangle 10_5" x="169.459" y="388.216" width="87.8919" height="5.51351" rx="2.59459" fill="#C2C5C9"/>
<rect id="oc_Rectangle 11_5" x="169.459" y="397.622" width="87.8919" height="5.51351" rx="2.59459" fill="#C2C5C9"/>
<path id="oc_Rectangle 19_5" d="M248 286C248 284.895 248.895 284 250 284H265V295H250C248.895 295 248 294.105 248 293V286Z" fill="#F3A032"/>
<g id="plus-solid 1_5">
<path id="Vector_5" d="M259.429 288.656H256.857V286.125C256.857 285.814 256.601 285.562 256.286 285.562H255.714C255.399 285.562 255.143 285.814 255.143 286.125V288.656H252.571C252.256 288.656 252 288.908 252 289.219V289.781C252 290.092 252.256 290.344 252.571 290.344H255.143V292.875C255.143 293.186 255.399 293.438 255.714 293.438H256.286C256.601 293.438 256.857 293.186 256.857 292.875V290.344H259.429C259.744 290.344 260 290.092 260 289.781V289.219C260 288.908 259.744 288.656 259.429 288.656Z" fill="white"/>
</g>
</g>
<g id="oc_card2" filter="url(#filter5_d)">
<rect x="311" y="108" width="102.811" height="132" rx="2.59459" fill="#F4F7FC"/>
<path id="oc_Rectangle 8_6" d="M311 110.595C311 109.162 312.162 108 313.595 108H411.405C412.838 108 414 109.162 414 110.595V202H311V110.595Z" fill="#C2C5C9"/>
<rect id="oc_Rectangle 9_6" x="318.459" y="210.811" width="87.8919" height="5.51351" rx="2.59459" fill="#C2C5C9"/>
<rect id="oc_Rectangle 10_6" x="318.459" y="220.216" width="87.8919" height="5.51351" rx="2.59459" fill="#C2C5C9"/>
<rect id="oc_Rectangle 11_6" x="318.459" y="229.622" width="87.8919" height="5.51351" rx="2.59459" fill="#C2C5C9"/>
<path id="oc_Rectangle 19_6" d="M397 118C397 116.895 397.895 116 399 116H414V127H399C397.895 127 397 126.105 397 125V118Z" fill="#F3A032"/>
<g id="plus-solid 1_6">
<path id="Vector_6" d="M408.429 120.656H405.857V118.125C405.857 117.814 405.601 117.562 405.286 117.562H404.714C404.399 117.562 404.143 117.814 404.143 118.125V120.656H401.571C401.256 120.656 401 120.908 401 121.219V121.781C401 122.092 401.256 122.344 401.571 122.344H404.143V124.875C404.143 125.186 404.399 125.438 404.714 125.438H405.286C405.601 125.438 405.857 125.186 405.857 124.875V122.344H408.429C408.744 122.344 409 122.092 409 121.781V121.219C409 120.908 408.744 120.656 408.429 120.656Z" fill="white"/>
</g>
</g>
<circle id="ClickBox" cx="381" cy="155" r="5" fill="#C4C4C4"/>
<g id="RecipeDetail" filter="url(#filter6_d)">
<rect id="oc_RDBackground" x="157" y="18" width="412" height="486" rx="8" fill="#F4F7FC"/>
<rect id="oc_Image1" x="191" y="33" width="192" height="117" rx="8" fill="#C2C5C9"/>
<rect id="oc_Graph1" x="176" y="407" width="104" height="63" rx="8" fill="#C2C5C9"/>
<rect id="oc_Graph2" x="313" y="409" width="104" height="63" rx="8" fill="#C2C5C9"/>
<rect id="oc_Graph3" x="450" y="408" width="104" height="63" rx="8" fill="#C2C5C9"/>
<rect id="oc_Line1" x="400" y="64" width="136" height="6" rx="2.59459" fill="#C2C5C9"/>
<rect id="oc_Line2" x="400" y="83" width="136" height="6" rx="2.59459" fill="#C2C5C9"/>
<rect id="oc_Line3" x="400" y="102" width="136" height="6" rx="2.59459" fill="#C2C5C9"/>
<rect id="oc_Line4" x="400" y="121" width="136" height="6" rx="2.59459" fill="#C2C5C9"/>
<rect id="oc_Line5" x="194" y="199" width="149" height="6" rx="2.59459" fill="#C2C5C9"/>
<rect id="oc_Line6" x="194" y="226" width="342" height="6" rx="2.59459" fill="#C2C5C9"/>
<rect id="oc_Line7" x="194" y="253" width="342" height="6" rx="2.59459" fill="#C2C5C9"/>
<rect id="oc_Line8" x="194" y="280" width="342" height="6" rx="2.59459" fill="#C2C5C9"/>
<rect id="oc_Line9" x="194" y="307" width="342" height="6" rx="2.59459" fill="#C2C5C9"/>
</g>
</g>
<defs>
<filter id="filter0_d" x="160.703" y="108" width="105.595" height="134.595" filterUnits="userSpaceOnUse" color-interpolation-filters="sRGB">
<feFlood flood-opacity="0" result="BackgroundImageFix"/>
<feColorMatrix in="SourceAlpha" type="matrix" values="0 0 0 0 0 0 0 0 0 0 0 0 0 0 0 0 0 0 127 0"/>
<feOffset dy="1.2973"/>
<feGaussianBlur stdDeviation="0.648649"/>
<feColorMatrix type="matrix" values="0 0 0 0 0 0 0 0 0 0 0 0 0 0 0 0 0 0 0.25 0"/>
<feBlend mode="normal" in2="BackgroundImageFix" result="effect1_dropShadow"/>
<feBlend mode="normal" in="SourceGraphic" in2="effect1_dropShadow" result="shape"/>
</filter>
<filter id="filter1_d" x="458.703" y="108" width="105.595" height="134.595" filterUnits="userSpaceOnUse" color-interpolation-filters="sRGB">
<feFlood flood-opacity="0" result="BackgroundImageFix"/>
<feColorMatrix in="SourceAlpha" type="matrix" values="0 0 0 0 0 0 0 0 0 0 0 0 0 0 0 0 0 0 127 0"/>
<feOffset dy="1.2973"/>
<feGaussianBlur stdDeviation="0.648649"/>
<feColorMatrix type="matrix" values="0 0 0 0 0 0 0 0 0 0 0 0 0 0 0 0 0 0 0.25 0"/>
<feBlend mode="normal" in2="BackgroundImageFix" result="effect1_dropShadow"/>
<feBlend mode="normal" in="SourceGraphic" in2="effect1_dropShadow" result="shape"/>
</filter>
<filter id="filter2_d" x="458.703" y="276" width="105.595" height="134.595" filterUnits="userSpaceOnUse" color-interpolation-filters="sRGB">
<feFlood flood-opacity="0" result="BackgroundImageFix"/>
<feColorMatrix in="SourceAlpha" type="matrix" values="0 0 0 0 0 0 0 0 0 0 0 0 0 0 0 0 0 0 127 0"/>
<feOffset dy="1.2973"/>
<feGaussianBlur stdDeviation="0.648649"/>
<feColorMatrix type="matrix" values="0 0 0 0 0 0 0 0 0 0 0 0 0 0 0 0 0 0 0.25 0"/>
<feBlend mode="normal" in2="BackgroundImageFix" result="effect1_dropShadow"/>
<feBlend mode="normal" in="SourceGraphic" in2="effect1_dropShadow" result="shape"/>
</filter>
<filter id="filter3_d" x="309.703" y="276" width="105.595" height="134.595" filterUnits="userSpaceOnUse" color-interpolation-filters="sRGB">
<feFlood flood-opacity="0" result="BackgroundImageFix"/>
<feColorMatrix in="SourceAlpha" type="matrix" values="0 0 0 0 0 0 0 0 0 0 0 0 0 0 0 0 0 0 127 0"/>
<feOffset dy="1.2973"/>
<feGaussianBlur stdDeviation="0.648649"/>
<feColorMatrix type="matrix" values="0 0 0 0 0 0 0 0 0 0 0 0 0 0 0 0 0 0 0.25 0"/>
<feBlend mode="normal" in2="BackgroundImageFix" result="effect1_dropShadow"/>
<feBlend mode="normal" in="SourceGraphic" in2="effect1_dropShadow" result="shape"/>
</filter>
<filter id="filter4_d" x="160.703" y="276" width="105.595" height="134.595" filterUnits="userSpaceOnUse" color-interpolation-filters="sRGB">
<feFlood flood-opacity="0" result="BackgroundImageFix"/>
<feColorMatrix in="SourceAlpha" type="matrix" values="0 0 0 0 0 0 0 0 0 0 0 0 0 0 0 0 0 0 127 0"/>
<feOffset dy="1.2973"/>
<feGaussianBlur stdDeviation="0.648649"/>
<feColorMatrix type="matrix" values="0 0 0 0 0 0 0 0 0 0 0 0 0 0 0 0 0 0 0.25 0"/>
<feBlend mode="normal" in2="BackgroundImageFix" result="effect1_dropShadow"/>
<feBlend mode="normal" in="SourceGraphic" in2="effect1_dropShadow" result="shape"/>
</filter>
<filter id="filter5_d" x="309.703" y="108" width="105.595" height="134.595" filterUnits="userSpaceOnUse" color-interpolation-filters="sRGB">
<feFlood flood-opacity="0" result="BackgroundImageFix"/>
<feColorMatrix in="SourceAlpha" type="matrix" values="0 0 0 0 0 0 0 0 0 0 0 0 0 0 0 0 0 0 127 0"/>
<feOffset dy="1.2973"/>
<feGaussianBlur stdDeviation="0.648649"/>
<feColorMatrix type="matrix" values="0 0 0 0 0 0 0 0 0 0 0 0 0 0 0 0 0 0 0.25 0"/>
<feBlend mode="normal" in2="BackgroundImageFix" result="effect1_dropShadow"/>
<feBlend mode="normal" in="SourceGraphic" in2="effect1_dropShadow" result="shape"/>
</filter>
<filter id="filter6_d" x="155.7" y="0" width="414.6" height="528.6" filterUnits="userSpaceOnUse" color-interpolation-filters="sRGB">
<feFlood flood-opacity="0" result="BackgroundImageFix"/>
<feColorMatrix in="SourceAlpha" type="matrix" values="0 0 0 0 0 0 0 0 0 0 0 0 0 0 0 0 0 0 127 0"/>
<feOffset dy="1.3"/>
<feGaussianBlur stdDeviation="0.65"/>
<feColorMatrix type="matrix" values="0 0 0 0 0 0 0 0 0 0 0 0 0 0 0 0 0 0 0.25 0"/>
<feBlend mode="normal" in2="BackgroundImageFix" result="effect1_dropShadow"/>
<feBlend mode="normal" in="SourceGraphic" in2="effect1_dropShadow" result="shape"/>
</filter>
</defs>
</svg>
