<svg width="1440" height="1737" viewBox="0 0 1440 1737" fill="none" xmlns="http://www.w3.org/2000/svg">
<g clip-path="url(#clip0)">
<path d="M1830.18 563.754L-77.3174 709.078L-246 417.598C282.183 300.918 1411.09 78.8396 1701.26 123.962C1991.43 169.085 1908.11 435.958 1830.18 563.754Z" fill="url(#paint0_linear)"/>
<path d="M1178.81 455.375C953.095 496.67 956.536 210.008 986.47 61.516C1000.92 -76.776 1242.45 165.461 1165.02 276.83C1087.59 388.199 1460.94 403.756 1178.81 455.375Z" stroke="#FFB800" stroke-opacity="0.33"/>
<path d="M1178.81 455.375C953.095 496.67 956.536 210.008 986.47 61.516C1000.92 -76.776 1242.45 165.461 1165.02 276.83C1087.59 388.199 1460.94 403.756 1178.81 455.375Z" stroke="#FFB800" stroke-opacity="0.33"/>
<path d="M1213.81 420.373C988.096 461.668 991.538 175.006 1021.48 26.5138C1035.92 -111.778 1277.45 130.459 1200.02 241.828C1122.59 353.197 1495.94 368.754 1213.81 420.373Z" stroke="#FFB800" stroke-opacity="0.33"/>
<path d="M1258.36 375.825C1032.65 417.12 1036.09 130.458 1066.02 -18.034C1080.47 -156.326 1322 85.9109 1244.57 197.28C1167.14 308.649 1540.49 324.206 1258.36 375.825Z" stroke="#FFB800" stroke-opacity="0.33"/>
<path d="M1300.08 334.105C1074.37 375.4 1077.81 88.7379 1107.74 -59.7541C1122.19 -198.046 1363.72 44.1909 1286.29 155.56C1208.86 266.929 1582.21 282.487 1300.08 334.105Z" stroke="#FFB800" stroke-opacity="0.33"/>
<path d="M1348.87 293.8C1123.16 335.095 1126.6 48.4329 1156.53 -100.059C1170.98 -238.351 1412.51 3.88494 1335.08 115.255C1257.65 226.624 1631 242.181 1348.87 293.8Z" stroke="#FFB800" stroke-opacity="0.33"/>
<path d="M1389.91 252.756C1164.2 294.051 1167.64 7.38891 1197.58 -141.103C1212.02 -279.395 1453.55 -37.1581 1376.12 74.2109C1298.69 185.58 1672.05 201.137 1389.91 252.756Z" stroke="#FFB800" stroke-opacity="0.33"/>
<path d="M1430.54 212.128C1204.83 253.423 1208.27 -33.2382 1238.2 -181.73C1252.65 -320.022 1494.18 -77.7862 1416.75 33.5838C1339.32 144.953 1712.67 160.51 1430.54 212.128Z" stroke="#FFB800" stroke-opacity="0.33"/>
<path d="M1472.29 170.378C1246.58 211.673 1250.02 -74.9881 1279.96 -223.481C1294.4 -361.773 1535.93 -119.536 1458.5 -8.16714C1381.07 103.202 1754.42 118.759 1472.29 170.378Z" stroke="#FFB800" stroke-opacity="0.33"/>
<path d="M-68.7639 413.254C-294.472 454.549 -291.031 167.887 -261.096 19.3947C-246.653 -118.897 -5.12408 123.34 -82.5522 234.709C-159.98 346.078 213.372 361.635 -68.7639 413.254Z" stroke="#FFB800" stroke-opacity="0.33"/>
<path d="M-68.7639 413.254C-294.472 454.549 -291.031 167.887 -261.096 19.3947C-246.653 -118.897 -5.12408 123.34 -82.5522 234.709C-159.98 346.078 213.372 361.635 -68.7639 413.254Z" stroke="#FFB800" stroke-opacity="0.33"/>
<path d="M-33.7622 378.252C-259.471 419.547 -256.029 132.885 -226.095 -15.6071C-211.651 -153.899 29.878 88.3376 -47.5502 199.707C-124.978 311.076 248.373 326.633 -33.7622 378.252Z" stroke="#FFB800" stroke-opacity="0.33"/>
<path d="M10.7856 333.704C-214.923 374.999 -211.481 88.3372 -181.547 -60.1552C-167.103 -198.447 74.4259 43.7896 -3.00227 155.159C-80.4305 266.528 292.921 282.085 10.7856 333.704Z" stroke="#FFB800" stroke-opacity="0.33"/>
<path d="M52.5053 291.984C-173.203 333.279 -169.761 46.6172 -139.827 -101.875C-125.383 -240.167 116.146 2.06972 38.7175 113.439C-38.7106 224.808 334.641 240.366 52.5053 291.984Z" stroke="#FFB800" stroke-opacity="0.33"/>
<path d="M101.296 251.679C-124.412 292.974 -120.97 6.31209 -91.0361 -142.18C-76.5929 -280.472 164.937 -38.2356 87.5083 73.1337C10.0801 184.503 383.432 200.06 101.296 251.679Z" stroke="#FFB800" stroke-opacity="0.33"/>
<path d="M142.34 210.635C-83.3682 251.93 -79.9266 -34.7316 -49.9924 -183.224C-35.5492 -321.516 205.98 -79.2793 128.552 32.09C51.1239 143.459 424.476 159.016 142.34 210.635Z" stroke="#FFB800" stroke-opacity="0.33"/>
<path d="M182.968 170.007C-42.7409 211.302 -39.2995 -75.3588 -9.36529 -223.851C5.07789 -362.143 246.607 -119.907 169.179 -8.53717C91.751 102.832 465.103 118.389 182.968 170.007Z" stroke="#FFB800" stroke-opacity="0.33"/>
<path d="M224.718 128.257C-0.990036 169.552 2.45124 -117.109 32.3855 -265.602C46.8286 -403.894 288.358 -161.657 210.93 -50.2879C133.502 61.0815 506.854 76.6378 224.718 128.257Z" stroke="#FFB800" stroke-opacity="0.33"/>
</g>
<defs>
<linearGradient id="paint0_linear" x1="1145.2" y1="372.039" x2="1306.75" y2="1463.69" gradientUnits="userSpaceOnUse">
<stop stop-color="white"/>
<stop offset="1" stop-color="#FFB800"/>
</linearGradient>
<clipPath id="clip0">
<rect width="1440" height="1737" fill="white"/>
</clipPath>
</defs>
</svg>
