<svg width="1440" height="1737" viewBox="0 0 1440 1737" fill="none" xmlns="http://www.w3.org/2000/svg">
<g clip-path="url(#clip0)">
<path d="M1178.81 455.375C953.097 496.67 956.538 210.008 986.472 61.516C1000.92 -76.776 1242.45 165.461 1165.02 276.83C1087.59 388.199 1460.94 403.756 1178.81 455.375Z" stroke="#FFB800" stroke-opacity="0.33"/>
<path d="M1178.81 455.375C953.097 496.67 956.538 210.008 986.472 61.516C1000.92 -76.776 1242.45 165.461 1165.02 276.83C1087.59 388.199 1460.94 403.756 1178.81 455.375Z" stroke="#FFB800" stroke-opacity="0.33"/>
<path d="M1213.81 420.373C988.098 461.668 991.54 175.006 1021.48 26.5138C1035.92 -111.778 1277.45 130.459 1200.02 241.828C1122.59 353.197 1495.94 368.754 1213.81 420.373Z" stroke="#FFB800" stroke-opacity="0.33"/>
<path d="M1258.36 375.825C1032.65 417.12 1036.09 130.458 1066.02 -18.034C1080.47 -156.326 1322 85.9109 1244.57 197.28C1167.14 308.649 1540.49 324.206 1258.36 375.825Z" stroke="#FFB800" stroke-opacity="0.33"/>
<path d="M1300.08 334.105C1074.37 375.4 1077.81 88.7379 1107.74 -59.7541C1122.19 -198.046 1363.72 44.1909 1286.29 155.56C1208.86 266.929 1582.21 282.487 1300.08 334.105Z" stroke="#FFB800" stroke-opacity="0.33"/>
<path d="M1348.87 293.8C1123.16 335.095 1126.6 48.4329 1156.53 -100.059C1170.98 -238.351 1412.51 3.88494 1335.08 115.255C1257.65 226.624 1631 242.181 1348.87 293.8Z" stroke="#FFB800" stroke-opacity="0.33"/>
<path d="M1389.91 252.756C1164.2 294.051 1167.64 7.38891 1197.58 -141.103C1212.02 -279.395 1453.55 -37.1581 1376.12 74.2109C1298.69 185.58 1672.05 201.137 1389.91 252.756Z" stroke="#FFB800" stroke-opacity="0.33"/>
<path d="M1430.54 212.128C1204.83 253.423 1208.27 -33.2382 1238.2 -181.73C1252.65 -320.022 1494.18 -77.7862 1416.75 33.5838C1339.32 144.953 1712.67 160.51 1430.54 212.128Z" stroke="#FFB800" stroke-opacity="0.33"/>
<path d="M1472.29 170.378C1246.58 211.673 1250.02 -74.9881 1279.96 -223.481C1294.4 -361.773 1535.93 -119.536 1458.5 -8.16714C1381.07 103.202 1754.42 118.759 1472.29 170.378Z" stroke="#FFB800" stroke-opacity="0.33"/>
<path d="M-68.7638 413.254C-294.472 454.549 -291.031 167.887 -261.096 19.3947C-246.653 -118.897 -5.12395 123.34 -82.5521 234.709C-159.98 346.078 213.372 361.635 -68.7638 413.254Z" stroke="#FFB800" stroke-opacity="0.33"/>
<path d="M-68.7638 413.254C-294.472 454.549 -291.031 167.887 -261.096 19.3947C-246.653 -118.897 -5.12395 123.34 -82.5521 234.709C-159.98 346.078 213.372 361.635 -68.7638 413.254Z" stroke="#FFB800" stroke-opacity="0.33"/>
<path d="M-33.7621 378.252C-259.471 419.547 -256.029 132.885 -226.095 -15.6071C-211.651 -153.899 29.8781 88.3376 -47.5501 199.707C-124.978 311.076 248.373 326.633 -33.7621 378.252Z" stroke="#FFB800" stroke-opacity="0.33"/>
<path d="M10.7858 333.704C-214.923 374.999 -211.481 88.3372 -181.547 -60.1552C-167.103 -198.447 74.4261 43.7896 -3.00215 155.159C-80.4303 266.528 292.921 282.085 10.7858 333.704Z" stroke="#FFB800" stroke-opacity="0.33"/>
<path d="M52.5054 291.984C-173.203 333.279 -169.761 46.6172 -139.827 -101.875C-125.383 -240.167 116.146 2.06972 38.7176 113.439C-38.7105 224.808 334.641 240.366 52.5054 291.984Z" stroke="#FFB800" stroke-opacity="0.33"/>
<path d="M101.296 251.679C-124.412 292.974 -120.97 6.31209 -91.0359 -142.18C-76.5927 -280.472 164.937 -38.2356 87.5085 73.1337C10.0803 184.503 383.432 200.06 101.296 251.679Z" stroke="#FFB800" stroke-opacity="0.33"/>
<path d="M142.34 210.635C-83.3681 251.93 -79.9265 -34.7316 -49.9923 -183.224C-35.5491 -321.516 205.98 -79.2793 128.552 32.09C51.124 143.459 424.476 159.016 142.34 210.635Z" stroke="#FFB800" stroke-opacity="0.33"/>
<path d="M182.968 170.007C-42.7408 211.302 -39.2994 -75.3588 -9.36517 -223.851C5.07801 -362.143 246.607 -119.907 169.179 -8.53717C91.7511 102.832 465.103 118.389 182.968 170.007Z" stroke="#FFB800" stroke-opacity="0.33"/>
<path d="M224.718 128.257C-0.989914 169.552 2.45136 -117.109 32.3856 -265.602C46.8287 -403.894 288.358 -161.657 210.93 -50.2879C133.502 61.0815 506.854 76.6378 224.718 128.257Z" stroke="#FFB800" stroke-opacity="0.33"/>
<path d="M1659.95 1349.39C1792.06 1537 1530.36 1654.04 1382.99 1689.11C1251.39 1733.97 1370.06 1413.14 1503.63 1436.75C1637.2 1460.36 1494.82 1114.88 1659.95 1349.39Z" stroke="#FFB800" stroke-opacity="0.33"/>
<path d="M1659.95 1349.39C1792.06 1537 1530.36 1654.04 1382.99 1689.11C1251.39 1733.97 1370.06 1413.14 1503.63 1436.75C1637.2 1460.36 1494.82 1114.88 1659.95 1349.39Z" stroke="#FFB800" stroke-opacity="0.33"/>
<path d="M1613.5 1332.28C1745.61 1519.89 1483.91 1636.93 1336.54 1672C1204.93 1716.86 1323.61 1396.03 1457.18 1419.65C1590.75 1443.26 1448.37 1097.77 1613.5 1332.28Z" stroke="#FFB800" stroke-opacity="0.33"/>
<path d="M1554.38 1310.51C1686.49 1498.12 1424.79 1615.16 1277.42 1650.23C1145.82 1695.09 1264.49 1374.26 1398.06 1397.87C1531.63 1421.49 1389.25 1076 1554.38 1310.51Z" stroke="#FFB800" stroke-opacity="0.33"/>
<path d="M1499.02 1290.12C1631.12 1477.73 1369.42 1594.77 1222.06 1629.84C1090.45 1674.7 1209.13 1353.87 1342.7 1377.49C1476.27 1401.1 1333.88 1055.61 1499.02 1290.12Z" stroke="#FFB800" stroke-opacity="0.33"/>
<path d="M1441.97 1262.72C1574.08 1450.33 1312.38 1567.37 1165.01 1602.44C1033.4 1647.3 1152.08 1326.47 1285.65 1350.08C1419.22 1373.7 1276.84 1028.21 1441.97 1262.72Z" stroke="#FFB800" stroke-opacity="0.33"/>
<path d="M1387.5 1242.66C1519.61 1430.27 1257.91 1547.32 1110.54 1582.39C978.935 1627.24 1097.61 1306.42 1231.18 1330.03C1364.75 1353.64 1222.37 1008.15 1387.5 1242.66Z" stroke="#FFB800" stroke-opacity="0.33"/>
<path d="M1333.59 1222.81C1465.69 1410.42 1203.99 1527.46 1056.63 1562.53C925.019 1607.39 1043.7 1286.56 1177.27 1310.17C1310.84 1333.78 1168.45 988.297 1333.59 1222.81Z" stroke="#FFB800" stroke-opacity="0.33"/>
<path d="M1278.18 1202.41C1410.29 1390.01 1148.59 1507.06 1001.22 1542.13C869.612 1586.98 988.291 1266.16 1121.86 1289.77C1255.43 1313.38 1113.05 967.893 1278.18 1202.41Z" stroke="#FFB800" stroke-opacity="0.33"/>
<path d="M483.954 760.388C616.061 947.997 354.359 1065.04 206.994 1100.11C75.3853 1144.97 194.064 824.139 327.633 847.751C461.202 871.363 318.82 525.876 483.954 760.388Z" stroke="#FFB800" stroke-opacity="0.33"/>
<path d="M483.954 760.388C616.061 947.997 354.359 1065.04 206.994 1100.11C75.3853 1144.97 194.064 824.139 327.633 847.751C461.202 871.363 318.82 525.876 483.954 760.388Z" stroke="#FFB800" stroke-opacity="0.33"/>
<path d="M437.503 743.283C569.61 930.893 307.908 1047.93 160.544 1083C28.9345 1127.86 147.613 807.034 281.182 830.646C414.751 854.257 272.369 508.771 437.503 743.283Z" stroke="#FFB800" stroke-opacity="0.33"/>
<path d="M378.384 721.512C510.491 909.122 248.789 1026.16 101.425 1061.23C-30.1848 1106.09 88.4939 785.263 222.063 808.875C355.632 832.487 213.25 487.001 378.384 721.512Z" stroke="#FFB800" stroke-opacity="0.33"/>
<path d="M323.018 701.124C455.125 888.733 193.423 1005.77 46.0588 1040.84C-85.551 1085.7 33.1278 764.874 166.697 788.486C300.266 812.098 157.885 466.611 323.018 701.124Z" stroke="#FFB800" stroke-opacity="0.33"/>
<path d="M265.972 673.722C398.079 861.331 136.377 978.373 -10.9868 1013.44C-142.596 1058.3 -23.9181 737.473 109.651 761.085C243.221 784.697 100.838 439.21 265.972 673.722Z" stroke="#FFB800" stroke-opacity="0.33"/>
<path d="M211.503 653.664C343.61 841.273 81.9083 958.315 -65.4558 993.385C-197.065 1038.24 -78.3865 717.415 55.1826 741.027C188.752 764.639 46.3692 419.152 211.503 653.664Z" stroke="#FFB800" stroke-opacity="0.33"/>
<path d="M157.586 633.809C289.694 821.419 27.9924 938.461 -119.371 973.53C-250.981 1018.39 -132.303 697.561 1.26689 721.172C134.836 744.784 -7.54645 399.297 157.586 633.809Z" stroke="#FFB800" stroke-opacity="0.33"/>
<path d="M102.18 613.405C234.287 801.015 -27.4141 918.056 -174.779 953.127C-306.388 997.985 -187.709 677.157 -54.1402 700.768C79.429 724.38 -62.954 378.893 102.18 613.405Z" stroke="#FFB800" stroke-opacity="0.33"/>
</g>
<defs>
<clipPath id="clip0">
<rect width="1440" height="1737" fill="white"/>
</clipPath>
</defs>
</svg>
