<svg width="167" height="98" viewBox="0 0 167 98" fill="none" xmlns="http://www.w3.org/2000/svg">
<rect width="72" height="72" rx="16" fill="#F3A032"/>
<rect x="36" y="36" width="131" height="62" rx="16" fill="white"/>
<path d="M54.0159 65.0078L62.9222 47.875H68.0316L56.2659 69.2734V82H51.7659V69.2734L40.0003 47.875H45.1566L54.0159 65.0078ZM88.1344 79.4922C86.4469 81.4766 83.9703 82.4688 80.7047 82.4688C78.0016 82.4688 75.9391 81.6875 74.5172 80.125C73.1109 78.5469 72.4 76.2188 72.3844 73.1406V56.6406H76.7203V73.0234C76.7203 76.8672 78.2828 78.7891 81.4078 78.7891C84.7203 78.7891 86.9234 77.5547 88.0172 75.0859V56.6406H92.3531V82H88.2281L88.1344 79.4922ZM104.001 56.6406L104.118 59.4531C105.977 57.2656 108.485 56.1719 111.641 56.1719C115.188 56.1719 117.602 57.5312 118.883 60.25C119.727 59.0312 120.821 58.0469 122.165 57.2969C123.524 56.5469 125.126 56.1719 126.969 56.1719C132.532 56.1719 135.36 59.1172 135.454 65.0078V82H131.118V65.2656C131.118 63.4531 130.704 62.1016 129.876 61.2109C129.048 60.3047 127.657 59.8516 125.704 59.8516C124.094 59.8516 122.758 60.3359 121.696 61.3047C120.633 62.2578 120.016 63.5469 119.844 65.1719V82H115.485V65.3828C115.485 61.6953 113.68 59.8516 110.071 59.8516C107.227 59.8516 105.282 61.0625 104.235 63.4844V82H99.8991V56.6406H104.001ZM143.07 79.7266C143.07 78.9766 143.289 78.3516 143.726 77.8516C144.179 77.3516 144.851 77.1016 145.742 77.1016C146.632 77.1016 147.304 77.3516 147.757 77.8516C148.226 78.3516 148.461 78.9766 148.461 79.7266C148.461 80.4453 148.226 81.0469 147.757 81.5312C147.304 82.0156 146.632 82.2578 145.742 82.2578C144.851 82.2578 144.179 82.0156 143.726 81.5312C143.289 81.0469 143.07 80.4453 143.07 79.7266Z" fill="#29315D"/>
</svg>
