<svg width="715" height="559" viewBox="0 0 715 559" fill="none" xmlns="http://www.w3.org/2000/svg">
<path d="M202.879 33.3885L16.05 287.987C3.67644 304.937 -1.90676 325.784 0.582453 345.973C3.07167 366.163 13.3991 384.024 29.2929 395.626C45.1867 407.228 65.3449 411.622 85.3329 407.841C105.321 404.059 123.501 392.412 135.875 375.462L151.571 354.062C155.448 371.122 165.082 386.026 178.961 396.157C193.981 407.121 212.808 411.648 231.701 408.922L210.718 437.518C198.345 454.468 192.762 475.315 195.251 495.504C197.74 515.694 208.068 533.555 223.961 545.157C239.855 556.759 260.013 561.153 280.001 557.372C299.989 553.59 317.953 542.231 330.326 525.28L383.241 453.165C388.275 463.445 395.666 472.371 404.961 479.157C420.855 490.759 441.013 495.153 461.001 491.372C480.989 487.59 498.953 476.239 511.326 459.289L697.926 204.98C710.383 188.091 716.057 167.259 713.67 147.059C711.283 126.859 701.047 108.95 685.215 97.2722C669.382 85.5941 649.249 81.1034 629.245 84.788C609.655 88.3963 590.98 100.598 578.548 116.92L525.629 189.016C520.652 178.86 513.369 170.024 504.215 163.272C489.143 152.155 470.175 147.552 451.13 150.313L471.926 121.972C484.383 105.083 490.057 84.259 487.67 64.0591C485.283 43.8592 475.048 25.9503 459.215 14.2722C443.382 2.59411 423.249 -1.8966 403.245 1.78798C383.655 5.39628 364.932 17.678 352.5 34L336.634 55.5832C332.787 38.6654 323.269 23.863 309.546 13.7413C293.714 2.06315 273.581 -2.42757 253.577 1.25701C233.987 4.86531 215.311 17.0665 202.879 33.3885Z" fill="black"/>
</svg>
