<svg width="715" height="560" viewBox="0 0 715 560" fill="none" xmlns="http://www.w3.org/2000/svg">
<path d="M16.3815 288.456L203.97 32.7993L323.578 120.562L135.989 376.218L16.3815 288.456Z" fill="black"/>
<path d="M136.207 375.931C123.833 392.881 105.652 404.528 85.6645 408.31C65.6765 412.091 45.5183 407.697 29.6245 396.095C13.7307 384.493 3.40319 366.632 0.913977 346.442C-1.57524 326.253 3.97771 305.388 16.3512 288.438L136.207 375.931Z" fill="black"/>
<path d="M203.211 33.8576C215.668 16.9687 233.904 5.41063 253.908 1.72605C273.912 -1.95853 294.045 2.53218 309.878 14.2103C325.711 25.8884 335.946 43.7973 338.333 63.9972C340.72 84.1971 335.063 105.033 322.606 121.922L203.211 33.8576Z" fill="black"/>
<path d="M166.05 288.987L353.638 33.3302L473.246 121.093L285.658 376.749L166.05 288.987Z" fill="black"/>
<path d="M285.875 376.462C273.501 393.412 255.321 405.059 235.333 408.841C215.345 412.622 195.187 408.228 179.293 396.626C163.399 385.024 153.072 367.163 150.582 346.973C148.093 326.784 153.646 305.919 166.02 288.969L285.875 376.462Z" fill="black"/>
<path d="M352.879 34.3885C365.336 17.4996 383.573 5.94159 403.577 2.25701C423.581 -1.42757 443.714 3.06315 459.546 14.7412C475.379 26.4194 485.615 44.3282 488.002 64.5281C490.389 84.7281 484.731 105.564 472.274 122.453L352.879 34.3885Z" fill="black"/>
<path d="M211.05 437.987L398.638 182.33L518.246 270.093L330.658 525.749L211.05 437.987Z" fill="black"/>
<path d="M330.875 525.462C318.501 542.412 300.321 554.059 280.333 557.841C260.345 561.622 240.187 557.228 224.293 545.626C208.399 534.024 198.072 516.163 195.582 495.973C193.093 475.784 198.646 454.919 211.02 437.969L330.875 525.462Z" fill="black"/>
<path d="M397.879 183.389C410.336 166.5 428.573 154.942 448.577 151.257C468.581 147.572 488.714 152.063 504.546 163.741C520.379 175.419 530.615 193.328 533.002 213.528C535.389 233.728 529.731 254.564 517.274 271.453L397.879 183.389Z" fill="black"/>
<path d="M392.05 371.987L579.638 116.33L699.246 204.093L511.658 459.749L392.05 371.987Z" fill="black"/>
<path d="M511.875 459.462C499.501 476.412 481.321 488.059 461.333 491.841C441.345 495.622 421.187 491.228 405.293 479.626C389.399 468.024 379.072 450.163 376.582 429.973C374.093 409.784 379.646 388.919 392.02 371.969L511.875 459.462Z" fill="black"/>
<path d="M578.879 117.389C591.336 100.5 609.573 88.9416 629.577 85.257C649.581 81.5724 669.713 86.0631 685.546 97.7413C701.379 109.419 711.615 127.328 714.002 147.528C716.389 167.728 710.731 188.564 698.274 205.453L578.879 117.389Z" fill="black"/>
</svg>
