<svg width="1440" height="1737" viewBox="0 0 1440 1737" fill="none" xmlns="http://www.w3.org/2000/svg">
<g clip-path="url(#clip0)">
<path d="M1832.05 730.901L-75.4504 876.225L-244.133 584.745C284.05 468.065 1412.96 245.987 1703.13 291.109C1993.3 336.232 1909.98 603.105 1832.05 730.901Z" fill="url(#paint0_linear)"/>
<path d="M1184.24 640.254C958.528 681.549 961.969 394.887 991.903 246.395C1006.35 108.103 1247.88 350.34 1170.45 461.709C1093.02 573.078 1466.37 588.635 1184.24 640.254Z" stroke="#FFB800" stroke-opacity="0.33"/>
<path d="M1184.24 640.254C958.528 681.549 961.969 394.887 991.903 246.395C1006.35 108.103 1247.88 350.34 1170.45 461.709C1093.02 573.078 1466.37 588.635 1184.24 640.254Z" stroke="#FFB800" stroke-opacity="0.33"/>
<path d="M1219.24 605.252C993.529 646.547 996.971 359.885 1026.91 211.393C1041.35 73.1009 1282.88 315.338 1205.45 426.707C1128.02 538.076 1501.37 553.633 1219.24 605.252Z" stroke="#FFB800" stroke-opacity="0.33"/>
<path d="M1263.79 560.704C1038.08 601.999 1041.52 315.337 1071.45 166.845C1085.9 28.5529 1327.43 270.79 1250 382.159C1172.57 493.528 1545.92 509.085 1263.79 560.704Z" stroke="#FFB800" stroke-opacity="0.33"/>
<path d="M1305.51 518.984C1079.8 560.279 1083.24 273.617 1113.17 125.125C1127.62 -13.1672 1369.15 229.07 1291.72 340.439C1214.29 451.808 1587.64 467.366 1305.51 518.984Z" stroke="#FFB800" stroke-opacity="0.33"/>
<path d="M1354.3 478.679C1128.59 519.974 1132.03 233.312 1161.96 84.8196C1176.41 -53.4723 1417.94 188.764 1340.51 300.134C1263.08 411.503 1636.43 427.06 1354.3 478.679Z" stroke="#FFB800" stroke-opacity="0.33"/>
<path d="M1395.34 437.635C1169.63 478.93 1173.07 192.268 1203.01 43.776C1217.45 -94.5159 1458.98 147.721 1381.55 259.09C1304.12 370.459 1677.48 386.016 1395.34 437.635Z" stroke="#FFB800" stroke-opacity="0.33"/>
<path d="M1435.97 397.007C1210.26 438.302 1213.7 151.641 1243.63 3.14881C1258.08 -135.143 1499.61 107.093 1422.18 218.463C1344.75 329.832 1718.1 345.389 1435.97 397.007Z" stroke="#FFB800" stroke-opacity="0.33"/>
<path d="M1477.72 355.257C1252.01 396.552 1255.45 109.891 1285.39 -38.6019C1299.83 -176.894 1541.36 65.3428 1463.93 176.712C1386.5 288.081 1759.85 303.638 1477.72 355.257Z" stroke="#FFB800" stroke-opacity="0.33"/>
<path d="M-68.7639 413.254C-294.472 454.549 -291.031 167.887 -261.096 19.3946C-246.653 -118.897 -5.12403 123.34 -82.5522 234.709C-159.98 346.078 213.372 361.635 -68.7639 413.254Z" stroke="#FFB800" stroke-opacity="0.33"/>
<path d="M-68.7639 413.254C-294.472 454.549 -291.031 167.887 -261.096 19.3946C-246.653 -118.897 -5.12403 123.34 -82.5522 234.709C-159.98 346.078 213.372 361.635 -68.7639 413.254Z" stroke="#FFB800" stroke-opacity="0.33"/>
<path d="M-33.7622 378.252C-259.471 419.547 -256.029 132.885 -226.095 -15.6072C-211.651 -153.899 29.878 88.3375 -47.5502 199.707C-124.978 311.076 248.373 326.633 -33.7622 378.252Z" stroke="#FFB800" stroke-opacity="0.33"/>
<path d="M10.7857 333.704C-214.923 374.999 -211.481 88.3372 -181.547 -60.1552C-167.103 -198.447 74.426 43.7896 -3.00221 155.159C-80.4304 266.528 292.921 282.085 10.7857 333.704Z" stroke="#FFB800" stroke-opacity="0.33"/>
<path d="M52.5054 291.984C-173.203 333.279 -169.761 46.6172 -139.827 -101.875C-125.383 -240.167 116.146 2.06969 38.7176 113.439C-38.7105 224.808 334.641 240.366 52.5054 291.984Z" stroke="#FFB800" stroke-opacity="0.33"/>
<path d="M101.296 251.679C-124.412 292.974 -120.97 6.31204 -91.036 -142.18C-76.5928 -280.472 164.937 -38.2356 87.5084 73.1337C10.0802 184.503 383.432 200.06 101.296 251.679Z" stroke="#FFB800" stroke-opacity="0.33"/>
<path d="M142.34 210.635C-83.3682 251.93 -79.9266 -34.7316 -49.9924 -183.224C-35.5492 -321.516 205.98 -79.2793 128.552 32.09C51.1239 143.459 424.476 159.016 142.34 210.635Z" stroke="#FFB800" stroke-opacity="0.33"/>
<path d="M182.968 170.007C-42.7408 211.302 -39.2994 -75.3588 -9.36521 -223.851C5.07797 -362.143 246.607 -119.907 169.179 -8.53719C91.7511 102.832 465.103 118.389 182.968 170.007Z" stroke="#FFB800" stroke-opacity="0.33"/>
<path d="M224.718 128.257C-0.989986 169.552 2.45128 -117.109 32.3855 -265.602C46.8286 -403.894 288.358 -161.657 210.93 -50.2879C133.502 61.0815 506.854 76.6378 224.718 128.257Z" stroke="#FFB800" stroke-opacity="0.33"/>
<path d="M-107.359 1243.97C-255.976 1069.15 -5.99868 928.799 137.567 880.476C264.553 823.838 175.534 1154.13 40.3711 1142.76C-94.7917 1131.39 78.412 1462.5 -107.359 1243.97Z" stroke="#E5E5E5"/>
<path d="M-107.359 1243.97C-255.976 1069.15 -5.99868 928.799 137.567 880.476C264.553 823.838 175.534 1154.13 40.3711 1142.76C-94.7917 1131.39 78.412 1462.5 -107.359 1243.97Z" stroke="#E5E5E5"/>
<path d="M-59.5458 1256.78C-208.163 1081.96 41.8146 941.61 185.38 893.288C312.366 836.65 223.348 1166.94 88.1848 1155.57C-46.978 1144.2 126.225 1475.31 -59.5458 1256.78Z" stroke="#E5E5E5"/>
<path d="M1.30777 1273.09C-147.309 1098.27 102.668 957.916 246.234 909.593C373.22 852.956 284.201 1183.24 149.038 1171.87C13.8757 1160.5 187.079 1491.61 1.30777 1273.09Z" stroke="#E5E5E5"/>
<path d="M58.2979 1288.36C-90.3189 1113.54 159.659 973.186 303.224 924.864C430.21 868.226 341.192 1198.52 206.029 1187.14C70.8661 1175.77 244.069 1506.89 58.2979 1288.36Z" stroke="#E5E5E5"/>
<path d="M117.599 1310.46C-31.0182 1135.64 218.96 995.288 362.525 946.965C489.511 890.328 400.492 1220.62 265.33 1209.25C130.167 1197.88 303.37 1528.99 117.599 1310.46Z" stroke="#E5E5E5"/>
<path d="M173.666 1325.48C25.0492 1150.66 275.026 1010.31 418.592 961.988C545.577 905.351 456.559 1235.64 321.396 1224.27C186.234 1212.9 359.437 1544.01 173.666 1325.48Z" stroke="#E5E5E5"/>
<path d="M229.164 1340.35C80.5474 1165.53 330.524 1025.18 474.089 976.859C601.075 920.221 512.057 1250.51 376.894 1239.14C241.731 1227.77 414.935 1558.88 229.164 1340.35Z" stroke="#E5E5E5"/>
<path d="M286.197 1355.64C137.58 1180.81 387.556 1040.46 531.122 992.141C658.108 935.503 569.089 1265.79 433.927 1254.42C298.764 1243.05 471.968 1574.16 286.197 1355.64Z" stroke="#E5E5E5"/>
</g>
<defs>
<linearGradient id="paint0_linear" x1="1147.07" y1="539.186" x2="1308.62" y2="1630.84" gradientUnits="userSpaceOnUse">
<stop stop-color="white"/>
<stop offset="1" stop-color="#FFB800"/>
</linearGradient>
<clipPath id="clip0">
<rect width="1440" height="1737" fill="white"/>
</clipPath>
</defs>
</svg>
